<svg width="32" height="32" viewBox="0 0 32 32" fill="none" xmlns="http://www.w3.org/2000/svg">
<path d="M13.3335 24C11.1113 24 9.22239 23.2222 7.66683 21.6667C6.11128 20.1111 5.3335 18.2222 5.3335 16C5.3335 13.7556 6.15016 11.8611 7.7835 10.3167C9.41683 8.77222 11.3779 8 13.6668 8C14.7335 8 15.7668 8.12222 16.7668 8.36667C17.7668 8.61111 18.7335 8.97778 19.6668 9.46667L16.3335 10.8C15.4224 11.1778 14.6946 11.7611 14.1502 12.55C13.6057 13.3389 13.3335 14.2222 13.3335 15.2C13.3335 16.5333 13.7946 17.6667 14.7168 18.6C15.6391 19.5333 16.7557 20 18.0668 20H26.6002C26.6446 20.5333 26.6668 21.1389 26.6668 21.8167V24H13.3335ZM26.1335 17.3333H18.1335C17.5335 17.3333 17.0279 17.1278 16.6168 16.7167C16.2057 16.3056 16.0002 15.8 16.0002 15.2C16.0002 14.7778 16.1168 14.3944 16.3502 14.05C16.5835 13.7056 16.9113 13.4444 17.3335 13.2667L22.2668 11.2667C23.2002 12.0889 23.9946 13.0222 24.6502 14.0667C25.3057 15.1111 25.8002 16.2 26.1335 17.3333ZM13.3335 26.6667H26.6668C27.4002 26.6667 28.0279 26.4056 28.5502 25.8833C29.0724 25.3611 29.3335 24.7333 29.3335 24V21C29.3335 18.8222 28.9224 16.7833 28.1002 14.8833C27.2779 12.9833 26.1613 11.3278 24.7502 9.91667C23.3391 8.50556 21.6779 7.38889 19.7668 6.56667C17.8557 5.74445 15.8224 5.33334 13.6668 5.33334C12.1557 5.33334 10.7335 5.61111 9.40016 6.16667C8.06683 6.72222 6.90016 7.48334 5.90016 8.45C4.90016 9.41667 4.11128 10.5444 3.5335 11.8333C2.95572 13.1222 2.66683 14.5111 2.66683 16C2.66683 17.4667 2.94461 18.85 3.50016 20.15C4.05572 21.45 4.81683 22.5833 5.7835 23.55C6.75016 24.5167 7.8835 25.2778 9.1835 25.8333C10.4835 26.3889 11.8668 26.6667 13.3335 26.6667Z" fill="#FFBB00" stroke="#FFBB00" stroke-width="0.3"/>
</svg>
