<svg width="32" height="32" viewBox="0 0 32 32" fill="none" xmlns="http://www.w3.org/2000/svg">
<path d="M6.81865 18.2088C5.63581 18.2088 4.67236 19.1722 4.67236 20.3551C4.67236 21.5379 5.63581 22.5013 6.81865 22.5013C8.00149 22.5013 8.96494 21.5379 8.96494 20.3551C8.96494 19.1722 8.00149 18.2088 6.81865 18.2088ZM6.81865 21.0705C6.62891 21.0705 6.44693 20.9951 6.31277 20.8609C6.1786 20.7268 6.10322 20.5448 6.10322 20.3551C6.10322 20.1653 6.1786 19.9833 6.31277 19.8492C6.44693 19.715 6.62891 19.6396 6.81865 19.6396C7.00839 19.6396 7.19037 19.715 7.32453 19.8492C7.4587 19.9833 7.53408 20.1653 7.53408 20.3551C7.53408 20.5448 7.4587 20.7268 7.32453 20.8609C7.19037 20.9951 7.00839 21.0705 6.81865 21.0705ZM16.3577 12.9623C17.5405 12.9623 18.504 11.9989 18.504 10.816C18.504 9.63317 17.5405 8.66972 16.3577 8.66972C15.1749 8.66972 14.2114 9.63317 14.2114 10.816C14.2114 11.9989 15.1749 12.9623 16.3577 12.9623ZM16.3577 10.1006C16.5474 10.1006 16.7294 10.176 16.8636 10.3101C16.9978 10.4443 17.0731 10.6263 17.0731 10.816C17.0731 11.0058 16.9978 11.1877 16.8636 11.3219C16.7294 11.4561 16.5474 11.5314 16.3577 11.5314C16.168 11.5314 15.986 11.4561 15.8518 11.3219C15.7176 11.1877 15.6423 11.0058 15.6423 10.816C15.6423 10.6263 15.7176 10.4443 15.8518 10.3101C15.986 10.176 16.168 10.1006 16.3577 10.1006Z" fill="#FFBB00"/>
<path d="M26.4582 14.531L26.4583 14.531L26.4783 14.5376C27.6077 14.9071 28.8118 15.301 29.8812 16.3704C30.9453 17.4345 31.5315 18.8501 31.5315 20.3551C31.5315 21.86 30.9453 23.2756 29.8793 24.3397C28.7834 25.4375 27.3386 25.9862 25.8966 25.9862C24.4545 25.9862 23.0097 25.4375 21.9119 24.3397C20.8426 23.2704 20.4487 22.0684 20.0773 20.9353L20.0706 20.915L20.0705 20.9147C19.7299 19.8677 19.4162 18.9155 18.6057 18.105L18.6055 18.1048C17.9456 17.4431 17.1776 17.1141 16.3574 16.8297C15.529 17.1158 14.7697 17.4447 14.1093 18.105C13.2988 18.9155 12.9851 19.8677 12.6445 20.9147L12.6444 20.915L12.6377 20.9352C12.2664 22.0683 11.8724 23.2703 10.8013 24.3396C9.70535 25.4375 8.26051 25.9862 6.81845 25.9862C5.37637 25.9862 3.93159 25.4375 2.83381 24.3397C1.76973 23.2756 1.1835 21.86 1.1835 20.3551C1.1835 18.8501 1.76971 17.4345 2.83571 16.3704C2.83575 16.3704 2.83578 16.3704 2.83581 16.3703L2.94178 16.4765C3.98389 15.4325 5.15869 15.0481 6.29236 14.6772L6.30334 14.6736L6.30912 14.6717C7.35245 14.3309 8.3348 14.0101 9.17269 13.1722C10.0121 12.3327 10.3345 11.3464 10.6741 10.3028L26.4582 14.531ZM26.4582 14.531C25.4091 14.1883 24.457 13.8748 23.6484 13.0661C22.8397 12.2574 22.5242 11.3033 22.1835 10.2564L22.1834 10.2561L22.183 10.255C21.9085 9.41801 21.62 8.53877 21.0586 7.70793M26.4582 14.531L21.0586 7.70793M21.0586 7.70793C21.0533 7.698 21.0466 7.6878 21.0381 7.67805C20.8699 7.43894 20.6842 7.21253 20.4827 7.00068L21.0586 7.70793ZM28.6562 23.1144L28.6563 23.1143C29.3966 22.3776 29.8006 21.3972 29.8006 20.3551C29.8006 19.313 29.3947 18.3306 28.6581 17.5957L28.6579 17.5956C27.88 16.8177 26.9474 16.5117 25.9188 16.1765L25.9187 16.1765L25.9114 16.1741C24.7566 15.7974 23.5289 15.3969 22.4213 14.2894C22.0317 13.8997 21.7423 13.4949 21.5033 13.0857C21.2287 13.715 20.8437 14.2989 20.3401 14.8008L20.3393 14.8016C19.8483 15.284 19.2802 15.68 18.6591 15.9734C19.0854 16.2269 19.4794 16.5316 19.8323 16.8812L19.8328 16.8817C20.9366 17.9855 21.3357 19.2111 21.7117 20.3659L21.716 20.3789L21.7161 20.3792L21.7177 20.3842C22.0543 21.4093 22.3605 22.3416 23.135 23.1144H28.6562ZM28.6562 23.1144C27.9233 23.8451 26.9305 24.2555 25.8956 24.2555M28.6562 23.1144L25.8956 24.2555M25.8956 24.2555C24.8607 24.2555 23.8679 23.8451 23.1351 23.1144L25.8956 24.2555ZM9.57817 23.1143L9.57807 23.1144C8.84517 23.8451 7.85245 24.2555 6.8175 24.2555C5.78255 24.2555 4.78982 23.8451 4.05692 23.1144C3.32026 22.3795 2.91435 21.3971 2.91435 20.3551C2.91435 19.3129 3.31838 18.3325 4.05872 17.5959L4.05899 17.5956C4.83507 16.8195 5.76778 16.5117 6.79625 16.1765L6.79629 16.1765L6.80361 16.1741C7.95838 15.7974 9.18615 15.3969 10.2937 14.2894C11.3976 13.1855 11.7953 11.964 12.1708 10.8111L12.1769 10.7922L12.177 10.7919L12.1786 10.787C12.5153 9.76182 12.8214 8.82954 13.5978 8.0568L13.5979 8.05668C14.0069 7.64873 14.5012 7.33646 15.0452 7.14234C15.5893 6.94821 16.1696 6.87705 16.7444 6.93398C17.3192 6.9909 17.8743 7.17449 18.3697 7.47154C18.8651 7.76857 19.2885 8.17167 19.6095 8.65185C20.032 9.28743 20.2616 10.035 20.2616 10.816C20.2616 11.8581 19.8576 12.8385 19.1172 13.5752L19.117 13.5755C18.3409 14.3516 17.4082 14.6594 16.3797 14.9946L16.3797 14.9946L16.3723 14.997C15.2176 15.3737 13.9898 15.7742 12.8822 16.8817C11.7784 17.9856 11.3806 19.207 11.0052 20.36L10.999 20.3789L10.9989 20.3792L10.9973 20.3841C10.6607 21.4093 10.3546 22.3415 9.57817 23.1143Z" fill="#FFBB00" stroke="#FFBB00" stroke-width="0.3"/>
<path d="M25.8968 18.2088C24.7139 18.2088 23.7505 19.1722 23.7505 20.3551C23.7505 21.5379 24.7139 22.5014 25.8968 22.5014C27.0796 22.5014 28.0431 21.5379 28.0431 20.3551C28.0431 19.1722 27.0796 18.2088 25.8968 18.2088ZM25.8968 21.0705C25.707 21.0705 25.5251 20.9951 25.3909 20.861C25.2567 20.7268 25.1813 20.5448 25.1813 20.3551C25.1813 20.1653 25.2567 19.9834 25.3909 19.8492C25.5251 19.715 25.707 19.6396 25.8968 19.6396C26.0865 19.6396 26.2685 19.715 26.4027 19.8492C26.5368 19.9834 26.6122 20.1653 26.6122 20.3551C26.6122 20.5448 26.5368 20.7268 26.4027 20.861C26.2685 20.9951 26.0865 21.0705 25.8968 21.0705Z" fill="#FFBB00"/>
</svg>
