<svg width="24" height="24" viewBox="0 0 24 24" fill="none" xmlns="http://www.w3.org/2000/svg">
<path d="M5.11362 13.6566C4.22649 13.6566 3.50391 14.3792 3.50391 15.2663C3.50391 16.1534 4.22649 16.876 5.11362 16.876C6.00075 16.876 6.72334 16.1534 6.72334 15.2663C6.72334 14.3792 6.00075 13.6566 5.11362 13.6566ZM5.11362 15.8029C4.97131 15.8029 4.83483 15.7463 4.73421 15.6457C4.63358 15.5451 4.57705 15.4086 4.57705 15.2663C4.57705 15.124 4.63358 14.9875 4.73421 14.8869C4.83483 14.7863 4.97131 14.7297 5.11362 14.7297C5.25593 14.7297 5.39241 14.7863 5.49303 14.8869C5.59366 14.9875 5.65019 15.124 5.65019 15.2663C5.65019 15.4086 5.59366 15.5451 5.49303 15.6457C5.39241 15.7463 5.25593 15.8029 5.11362 15.8029ZM12.2679 9.72172C13.155 9.72172 13.8776 8.99914 13.8776 8.112C13.8776 7.22487 13.155 6.50229 12.2679 6.50229C11.3808 6.50229 10.6582 7.22487 10.6582 8.112C10.6582 8.99914 11.3808 9.72172 12.2679 9.72172ZM12.2679 7.57543C12.4102 7.57543 12.5467 7.63196 12.6473 7.73259C12.7479 7.83322 12.8045 7.9697 12.8045 8.112C12.8045 8.25431 12.7479 8.39079 12.6473 8.49142C12.5467 8.59204 12.4102 8.64858 12.2679 8.64858C12.1256 8.64858 11.9891 8.59204 11.8885 8.49142C11.7879 8.39079 11.7313 8.25431 11.7313 8.112C11.7313 7.9697 11.7879 7.83322 11.8885 7.73259C11.9891 7.63196 12.1256 7.57543 12.2679 7.57543Z" fill="#FFBB00"/>
<path d="M22.3312 12.3574C21.5457 11.5718 20.6614 11.2842 19.8086 11.0052C19.0245 10.7491 18.2848 10.5073 17.6566 9.87912C17.0285 9.25097 16.7852 8.50979 16.5305 7.72711C16.3231 7.09467 16.1099 6.44649 15.6949 5.83552C15.6949 5.83552 15.6949 5.83266 15.692 5.83122C15.5674 5.65329 15.4297 5.48494 15.28 5.32756C15.2428 5.2875 15.2156 5.24171 15.1769 5.20308C14.4051 4.43269 13.3592 4 12.2687 4C11.1782 4 10.1323 4.43269 9.3605 5.20308C8.57353 5.98862 8.28593 6.87146 8.00548 7.72711C7.75079 8.50979 7.50897 9.24954 6.87939 9.87912C6.24982 10.5087 5.51149 10.7491 4.72738 11.0052C3.87459 11.2842 2.99032 11.5718 2.20621 12.3574C1.42783 13.1343 1 14.1674 1 15.2663C1 16.3652 1.42783 17.3983 2.20478 18.1752C3.00606 18.9765 4.0606 19.3772 5.11372 19.3772C6.16683 19.3772 7.22137 18.9765 8.02122 18.1752C8.80819 17.3897 9.09579 16.5069 9.37624 15.6512C9.63093 14.8685 9.87275 14.1288 10.5023 13.4992C11.026 12.9755 11.6284 12.7222 12.268 12.5033C12.9004 12.7208 13.51 12.9741 14.0337 13.4992C14.6633 14.1288 14.9051 14.8685 15.1598 15.6512C15.4402 16.5069 15.7278 17.3897 16.5134 18.1752C17.3146 18.9765 18.3692 19.3772 19.4223 19.3772C20.4754 19.3772 21.5299 18.9765 22.3298 18.1752C23.1082 17.3983 23.536 16.3652 23.536 15.2663C23.536 14.1674 23.1082 13.1343 22.3312 12.3574ZM8.35604 15.3192C8.10421 16.0862 7.86812 16.8131 7.26286 17.4154C6.6921 17.9845 5.91899 18.3041 5.113 18.3041C4.30701 18.3041 3.5339 17.9845 2.96314 17.4154C2.38936 16.8431 2.07314 16.0776 2.07314 15.2663C2.07314 14.455 2.38793 13.6909 2.96457 13.1172C3.56839 12.5133 4.29383 12.2758 5.06221 12.0254C5.93074 11.7421 6.82931 11.4488 7.64061 10.6375C8.45191 9.82618 8.74237 8.92903 9.02568 8.05907C9.27751 7.29213 9.5136 6.56525 10.1189 5.96286C10.4373 5.64516 10.8223 5.40198 11.246 5.2508C11.6697 5.09962 12.1216 5.0442 12.5693 5.08853C13.0169 5.13286 13.4492 5.27583 13.835 5.50717C14.2209 5.73851 14.5506 6.05247 14.8006 6.42646C15.1297 6.92154 15.3086 7.5039 15.3086 8.11201C15.3086 8.92331 14.9938 9.68739 14.4172 10.2612C13.8133 10.865 13.0879 11.1025 12.3195 11.3529C11.451 11.6362 10.5524 11.9295 9.74111 12.7408C8.92981 13.5521 8.63935 14.4493 8.35604 15.3192ZM21.5714 17.4154C21.0007 17.9845 20.2276 18.3041 19.4216 18.3041C18.6156 18.3041 17.8425 17.9845 17.2717 17.4154C16.6679 16.8131 16.4318 16.0862 16.18 15.3192C15.8967 14.4493 15.6048 13.5507 14.7949 12.7408C14.4842 12.433 14.1298 12.1727 13.7432 11.9682C14.2771 11.7475 14.7634 11.4258 15.1755 11.0209C15.599 10.5988 15.9081 10.0966 16.1113 9.55432C16.3087 9.92491 16.5477 10.2898 16.8954 10.6375C17.7067 11.4488 18.6053 11.7421 19.4738 12.0254C20.2422 12.2758 20.9676 12.5119 21.5729 13.1172C22.1466 13.6895 22.4629 14.455 22.4629 15.2663C22.4629 16.0776 22.1481 16.8417 21.5714 17.4154Z" fill="#FFBB00" stroke="#FFBB00" stroke-width="0.7"/>
<path d="M19.4222 13.6566C18.5351 13.6566 17.8125 14.3792 17.8125 15.2663C17.8125 16.1534 18.5351 16.876 19.4222 16.876C20.3093 16.876 21.0319 16.1534 21.0319 15.2663C21.0319 14.3792 20.3093 13.6566 19.4222 13.6566ZM19.4222 15.8029C19.2799 15.8029 19.1434 15.7463 19.0428 15.6457C18.9422 15.5451 18.8856 15.4086 18.8856 15.2663C18.8856 15.124 18.9422 14.9875 19.0428 14.8869C19.1434 14.7863 19.2799 14.7297 19.4222 14.7297C19.5645 14.7297 19.701 14.7863 19.8016 14.8869C19.9023 14.9875 19.9588 15.124 19.9588 15.2663C19.9588 15.4086 19.9023 15.5451 19.8016 15.6457C19.701 15.7463 19.5645 15.8029 19.4222 15.8029Z" fill="#FFBB00"/>
</svg>
