<svg width="32" height="32" viewBox="0 0 32 32" fill="none" xmlns="http://www.w3.org/2000/svg">
<path d="M9.3335 26.8264L9.3335 27.3397L11.4894 27.3397L11.7814 27.6245L11.7814 28.3756L11.4894 28.6603L9.3335 28.6603L9.3335 29.1737L10.8644 30.6667L12.5943 30.6667L14.1252 29.1737L14.1252 26.8264L12.5943 25.3334L10.8644 25.3334L9.3335 26.8264ZM17.8752 26.8264L17.8752 29.1737L19.4061 30.6667L21.1359 30.6667L22.6668 29.1737L22.6668 28.6603L20.5109 28.6603L20.2189 28.3756L20.2189 27.6245L20.5109 27.3397L22.6668 27.3397L22.6668 26.8264L21.1359 25.3334L19.4061 25.3334L17.8752 26.8264ZM14.9064 26.8264L14.9064 29.3968L17.0939 29.3968L17.0939 26.6032L14.9064 26.6032L14.9064 26.8264Z" fill="#FFBB00"/>
<path d="M5.33333 24C3.86667 24 2.61111 23.4778 1.56667 22.4333C0.522222 21.3889 0 20.1333 0 18.6666C0 17.4 0.405556 16.2778 1.21667 15.3C2.02778 14.3222 3.06667 13.7111 4.33333 13.4666L3.4 12.6666H0V10.6666H6L9.33333 12.6666L14.6667 10.6666H18.8667L16.8 7.99998H13.3333V5.33331H18.0667L20.8667 8.93331L25.3333 6.66665V10.6666H22.2667L24.6 13.7333C24.9333 13.6 25.2722 13.5 25.6167 13.4333C25.9611 13.3666 26.3111 13.3333 26.6667 13.3333C28.1333 13.3333 29.3889 13.8555 30.4333 14.9C31.4778 15.9444 32 17.2 32 18.6666C32 20.1333 31.4778 21.3889 30.4333 22.4333C29.3889 23.4778 28.1333 24 26.6667 24C25.2 24 23.9444 23.4778 22.9 22.4333C21.8556 21.3889 21.3333 20.1333 21.3333 18.6666C21.3333 18.0666 21.4389 17.4833 21.65 16.9166C21.8611 16.35 22.1556 15.8222 22.5333 15.3333L21.8667 14.5333L17.3333 21.3333H13.3333L10.6667 19C10.5556 20.4 9.98889 21.5833 8.96667 22.55C7.94444 23.5166 6.73333 24 5.33333 24ZM5.33333 21.3333C6.06667 21.3333 6.69444 21.0722 7.21667 20.55C7.73889 20.0278 8 19.4 8 18.6666C8 17.9333 7.73889 17.3055 7.21667 16.7833C6.69444 16.2611 6.06667 16 5.33333 16C4.6 16 3.97222 16.2611 3.45 16.7833C2.92778 17.3055 2.66667 17.9333 2.66667 18.6666C2.66667 19.4 2.92778 20.0278 3.45 20.55C3.97222 21.0722 4.6 21.3333 5.33333 21.3333ZM26.6667 21.3333C27.4 21.3333 28.0278 21.0722 28.55 20.55C29.0722 20.0278 29.3333 19.4 29.3333 18.6666C29.3333 17.9333 29.0722 17.3055 28.55 16.7833C28.0278 16.2611 27.4 16 26.6667 16C25.9333 16 25.3056 16.2611 24.7833 16.7833C24.2611 17.3055 24 17.9333 24 18.6666C24 19.4 24.2611 20.0278 24.7833 20.55C25.3056 21.0722 25.9333 21.3333 26.6667 21.3333ZM15.9333 18.6666L19.4667 13.3333H15.1333L10.3333 15.1333L14.3333 18.6666H15.9333Z" fill="#FFBB00"/>
</svg>
