<svg width="32" height="32" fill="none" xmlns="http://www.w3.org/2000/svg"><path d="M16.001 10.667A5.332 5.332 0 0 0 10.668 16 5.332 5.332 0 0 0 16 21.333 5.332 5.332 0 0 0 21.334 16a5.332 5.332 0 0 0-5.333-5.333Zm11.92 4A11.992 11.992 0 0 0 17.334 4.08V2.667c0-.734-.6-1.334-1.333-1.334s-1.333.6-1.333 1.334V4.08A11.992 11.992 0 0 0 4.08 14.667H2.668c-.734 0-1.334.6-1.334 1.333s.6 1.333 1.334 1.333H4.08A11.992 11.992 0 0 0 14.668 27.92v1.413c0 .734.6 1.334 1.333 1.334s1.333-.6 1.333-1.334V27.92a11.992 11.992 0 0 0 10.587-10.587h1.413c.734 0 1.334-.6 1.334-1.333s-.6-1.333-1.334-1.333h-1.413Zm-11.92 10.666A9.327 9.327 0 0 1 6.668 16 9.326 9.326 0 0 1 16 6.667 9.327 9.327 0 0 1 25.334 16a9.327 9.327 0 0 1-9.333 9.333Z" fill="#FB0"/></svg>