<svg width="32" height="32" fill="none" xmlns="http://www.w3.org/2000/svg"><path d="M23.999 10.667h-1.334V8A6.67 6.67 0 0 0 16 1.333 6.67 6.67 0 0 0 9.332 8v2.667H7.999a2.675 2.675 0 0 0-2.667 2.666v13.334c0 1.466 1.2 2.666 2.667 2.666h16c1.466 0 2.666-1.2 2.666-2.666V13.333c0-1.466-1.2-2.666-2.666-2.666Zm-8 12A2.675 2.675 0 0 1 13.332 20c0-1.467 1.2-2.667 2.667-2.667 1.466 0 2.666 1.2 2.666 2.667 0 1.467-1.2 2.667-2.666 2.667Zm-4-12V8c0-2.213 1.786-4 4-4 2.213 0 4 1.787 4 4v2.667h-8Z" fill="#FB0"/></svg>