<svg width="32" height="32" viewBox="0 0 32 32" fill="none" xmlns="http://www.w3.org/2000/svg">
<path d="M16 32C24.8366 32 32 24.8366 32 16C32 7.16344 24.8366 0 16 0C7.16344 0 0 7.16344 0 16C0 24.8366 7.16344 32 16 32Z" fill="#121212"/>
<path d="M7.33333 24C6.14167 24 5.12153 23.5804 4.27292 22.7411C3.42431 21.9018 3 20.8929 3 19.7143C3 18.6964 3.32951 17.7946 3.98854 17.0089C4.64757 16.2232 5.49167 15.7321 6.52083 15.5357L5.7625 14.8929H3V13.2857H7.875L10.5833 14.8929L14.9167 13.2857H18.3292L16.65 11.1429H13.8333V9H17.6792L19.9542 11.8929L23.5833 10.0714V13.2857H21.0917L22.9875 15.75C23.2583 15.6429 23.5337 15.5625 23.8135 15.5089C24.0934 15.4554 24.3778 15.4286 24.6667 15.4286C25.8583 15.4286 26.8785 15.8482 27.7271 16.6875C28.5757 17.5268 29 18.5357 29 19.7143C29 20.8929 28.5757 21.9018 27.7271 22.7411C26.8785 23.5804 25.8583 24 24.6667 24C23.475 24 22.4549 23.5804 21.6063 22.7411C20.7576 21.9018 20.3333 20.8929 20.3333 19.7143C20.3333 19.2321 20.4191 18.7634 20.5906 18.308C20.7622 17.8527 21.0014 17.4286 21.3083 17.0357L20.7667 16.3929L17.0833 21.8571H13.8333L11.6667 19.9821C11.5764 21.1071 11.116 22.058 10.2854 22.8348C9.45486 23.6116 8.47083 24 7.33333 24ZM7.33333 21.8571C7.92917 21.8571 8.43924 21.6473 8.86354 21.2277C9.28785 20.808 9.5 20.3036 9.5 19.7143C9.5 19.125 9.28785 18.6205 8.86354 18.2009C8.43924 17.7813 7.92917 17.5714 7.33333 17.5714C6.7375 17.5714 6.22743 17.7813 5.80313 18.2009C5.37882 18.6205 5.16667 19.125 5.16667 19.7143C5.16667 20.3036 5.37882 20.808 5.80313 21.2277C6.22743 21.6473 6.7375 21.8571 7.33333 21.8571ZM24.6667 21.8571C25.2625 21.8571 25.7726 21.6473 26.1969 21.2277C26.6212 20.808 26.8333 20.3036 26.8333 19.7143C26.8333 19.125 26.6212 18.6205 26.1969 18.2009C25.7726 17.7813 25.2625 17.5714 24.6667 17.5714C24.0708 17.5714 23.5608 17.7813 23.1365 18.2009C22.7122 18.6205 22.5 19.125 22.5 19.7143C22.5 20.3036 22.7122 20.808 23.1365 21.2277C23.5608 21.6473 24.0708 21.8571 24.6667 21.8571ZM15.9458 19.7143L18.8167 15.4286H15.2958L11.3958 16.875L14.6458 19.7143H15.9458Z" fill="url(#paint0_linear_412_1326)"/>
<defs>
<linearGradient id="paint0_linear_412_1326" x1="16" y1="9" x2="16" y2="24" gradientUnits="userSpaceOnUse">
<stop stop-color="#FFBF00"/>
<stop offset="1" stop-color="#E68F17"/>
</linearGradient>
</defs>
</svg>
