<svg width="32" height="32" viewBox="0 0 32 32" fill="none" xmlns="http://www.w3.org/2000/svg">
<g clip-path="url(#clip0_207_186)">
<circle cx="16" cy="16" r="16" fill="#121212"/>
<path d="M23.5833 13.5H22.695L20.8533 8.43C20.7009 8.01195 20.4239 7.6507 20.0597 7.395C19.6955 7.1393 19.2617 7.00143 18.8167 7H17.0833C16.4875 7 16 7.4875 16 8.08333C16 8.67917 16.4875 9.16667 17.0833 9.16667H18.8167L20.3983 13.5H15.1875L14.7975 12.4167H14.895C15.4908 12.4167 15.9783 11.9292 15.9783 11.3333C15.9783 10.7375 15.4908 10.25 14.895 10.25H11.6667C11.0708 10.25 10.5833 10.7375 10.5833 11.3333C10.5833 11.9292 11.0708 12.4167 11.6667 12.4167H12.4792L14.4508 17.8333H13.725C13.2483 15.4175 11.2225 13.63 8.6875 13.5108C5.65417 13.3592 3 15.8833 3 18.9167C3 21.95 5.38333 24.3333 8.41667 24.3333C11.0817 24.3333 13.2375 22.5025 13.725 20H18.275C18.7517 22.4158 20.7775 24.2033 23.3125 24.3225C26.3458 24.4633 29 21.95 29 18.9058C29 15.8833 26.6167 13.5 23.5833 13.5ZM9.5 20H11.4717C11.0167 21.3325 9.73833 22.2533 8.2 22.1558C6.58583 22.0583 5.2425 20.6933 5.16667 19.0683C5.09083 17.1725 6.5425 15.6667 8.41667 15.6667C9.8575 15.6667 11.0383 16.5658 11.4717 17.8333H9.5C8.90417 17.8333 8.41667 18.3208 8.41667 18.9167C8.41667 19.5125 8.90417 20 9.5 20ZM18.275 17.8333H16.7583L15.9675 15.6667H19.25C18.7733 16.295 18.4267 17.0208 18.275 17.8333ZM23.4533 22.1667C21.785 22.1017 20.3767 20.6825 20.3333 19.0033C20.3117 17.9633 20.7558 17.0533 21.4708 16.4467L22.1425 18.2883C22.3483 18.8517 22.9658 19.1442 23.5292 18.9383C24.0925 18.7325 24.385 18.115 24.1792 17.5517L23.4967 15.6775L23.5075 15.6667C23.9418 15.6519 24.3747 15.7252 24.7799 15.8823C25.1851 16.0394 25.5543 16.277 25.8651 16.5808C26.1759 16.8845 26.422 17.2481 26.5884 17.6496C26.7548 18.0511 26.8381 18.4821 26.8333 18.9167C26.8333 20.78 25.3383 22.2317 23.4533 22.1667Z" fill="url(#paint0_linear_207_186)"/>
</g>
<defs>
<linearGradient id="paint0_linear_207_186" x1="16" y1="7" x2="16" y2="24.3333" gradientUnits="userSpaceOnUse">
<stop stop-color="#FFB60D"/>
<stop offset="1" stop-color="#E6A117"/>
<stop offset="1" stop-color="#E59317"/>
</linearGradient>
<clipPath id="clip0_207_186">
<rect width="32" height="32" fill="white"/>
</clipPath>
</defs>
</svg>
