<svg width="52" height="52" fill="none" xmlns="http://www.w3.org/2000/svg"><path d="M37.556 46.222a2.889 2.889 0 1 1 0 5.778 2.889 2.889 0 0 1 0-5.778ZM49.111 46.222a2.889 2.889 0 1 1 0 5.778 2.889 2.889 0 0 1 0-5.778ZM14.444 34.667a2.889 2.889 0 1 1 0 5.777 2.889 2.889 0 0 1 0-5.777ZM26 34.667a2.889 2.889 0 1 1 0 5.777 2.889 2.889 0 0 1 0-5.777ZM37.556 34.667a2.889 2.889 0 1 1 0 5.777 2.889 2.889 0 0 1 0-5.777ZM49.111 34.667a2.889 2.889 0 1 1 0 5.777 2.889 2.889 0 0 1 0-5.777ZM14.444 23.111a2.889 2.889 0 1 1 0 5.778 2.889 2.889 0 0 1 0-5.778ZM26 23.111a2.889 2.889 0 1 1 0 5.778 2.889 2.889 0 0 1 0-5.778ZM37.556 23.111a2.889 2.889 0 1 1 0 5.778 2.889 2.889 0 0 1 0-5.778ZM49.111 23.111a2.889 2.889 0 1 1 0 5.778 2.889 2.889 0 0 1 0-5.778ZM2.889 11.556a2.889 2.889 0 1 1 0 5.777 2.889 2.889 0 0 1 0-5.777ZM2.889 0a2.889 2.889 0 1 1 0 5.778 2.889 2.889 0 0 1 0-5.778ZM14.444 0a2.889 2.889 0 1 1 0 5.778 2.889 2.889 0 0 1 0-5.778ZM26 0a2.889 2.889 0 1 1 0 5.778A2.889 2.889 0 0 1 26 0ZM37.556 0a2.889 2.889 0 1 1 0 5.778 2.889 2.889 0 0 1 0-5.778ZM49.111 0a2.889 2.889 0 1 1 0 5.778 2.889 2.889 0 0 1 0-5.778ZM14.444 11.556a2.889 2.889 0 1 1 0 5.777 2.889 2.889 0 0 1 0-5.777ZM26 11.556a2.889 2.889 0 1 1 0 5.777 2.889 2.889 0 0 1 0-5.777ZM37.556 11.556a2.889 2.889 0 1 1 0 5.777 2.889 2.889 0 0 1 0-5.777ZM49.111 11.556a2.889 2.889 0 1 1 0 5.777 2.889 2.889 0 0 1 0-5.777Z" fill="gray" fill-opacity=".3"/></svg>