<svg width="52" height="52" fill="none" xmlns="http://www.w3.org/2000/svg"><path d="M46.222 37.556a2.889 2.889 0 1 0 5.778 0 2.889 2.889 0 0 0-5.778 0ZM46.222 49.111a2.889 2.889 0 1 0 5.778 0 2.889 2.889 0 0 0-5.778 0ZM34.667 14.444a2.889 2.889 0 1 0 5.777 0 2.889 2.889 0 0 0-5.777 0ZM34.667 26a2.889 2.889 0 1 0 5.777 0 2.889 2.889 0 0 0-5.777 0ZM34.667 37.556a2.889 2.889 0 1 0 5.777 0 2.889 2.889 0 0 0-5.777 0ZM34.667 49.111a2.889 2.889 0 1 0 5.777 0 2.889 2.889 0 0 0-5.777 0ZM23.111 14.444a2.889 2.889 0 1 0 5.778 0 2.889 2.889 0 0 0-5.778 0ZM23.111 26a2.889 2.889 0 1 0 5.778 0 2.889 2.889 0 0 0-5.778 0ZM23.111 37.556a2.889 2.889 0 1 0 5.778 0 2.889 2.889 0 0 0-5.778 0ZM23.111 49.111a2.889 2.889 0 1 0 5.778 0 2.889 2.889 0 0 0-5.778 0ZM11.556 2.889a2.889 2.889 0 1 0 5.777 0 2.889 2.889 0 0 0-5.777 0ZM0 2.889a2.889 2.889 0 1 0 5.778 0 2.889 2.889 0 0 0-5.778 0ZM0 14.444a2.889 2.889 0 1 0 5.778 0 2.889 2.889 0 0 0-5.778 0ZM0 26a2.889 2.889 0 1 0 5.778 0A2.889 2.889 0 0 0 0 26ZM0 37.556a2.889 2.889 0 1 0 5.778 0 2.889 2.889 0 0 0-5.778 0ZM0 49.111a2.889 2.889 0 1 0 5.778 0 2.889 2.889 0 0 0-5.778 0ZM11.556 14.444a2.889 2.889 0 1 0 5.777 0 2.889 2.889 0 0 0-5.777 0ZM11.556 26a2.889 2.889 0 1 0 5.777 0 2.889 2.889 0 0 0-5.777 0ZM11.556 37.556a2.889 2.889 0 1 0 5.777 0 2.889 2.889 0 0 0-5.777 0ZM11.556 49.111a2.889 2.889 0 1 0 5.777 0 2.889 2.889 0 0 0-5.777 0Z" fill="gray" fill-opacity=".3"/></svg>