<svg width="52" height="52" fill="none" xmlns="http://www.w3.org/2000/svg"><path d="M14.444 5.778a2.889 2.889 0 1 1 0-5.778 2.889 2.889 0 0 1 0 5.778ZM2.889 5.778a2.889 2.889 0 1 1 0-5.778 2.889 2.889 0 0 1 0 5.778ZM37.556 17.333a2.889 2.889 0 1 1 0-5.777 2.889 2.889 0 0 1 0 5.777ZM26 17.333a2.889 2.889 0 1 1 0-5.777 2.889 2.889 0 0 1 0 5.777ZM14.444 17.333a2.889 2.889 0 1 1 0-5.777 2.889 2.889 0 0 1 0 5.777ZM2.889 17.333a2.889 2.889 0 1 1 0-5.777 2.889 2.889 0 0 1 0 5.777ZM37.556 28.889a2.889 2.889 0 1 1 0-5.778 2.889 2.889 0 0 1 0 5.778ZM26 28.889a2.889 2.889 0 1 1 0-5.778 2.889 2.889 0 0 1 0 5.778ZM14.444 28.889a2.889 2.889 0 1 1 0-5.778 2.889 2.889 0 0 1 0 5.778ZM2.889 28.889a2.889 2.889 0 1 1 0-5.778 2.889 2.889 0 0 1 0 5.778ZM49.111 40.444a2.889 2.889 0 1 1 0-5.777 2.889 2.889 0 0 1 0 5.777ZM49.111 52a2.889 2.889 0 1 1 0-5.778 2.889 2.889 0 0 1 0 5.778ZM37.556 52a2.889 2.889 0 1 1 0-5.778 2.889 2.889 0 0 1 0 5.778ZM26 52a2.889 2.889 0 1 1 0-5.778A2.889 2.889 0 0 1 26 52ZM14.444 52a2.889 2.889 0 1 1 0-5.778 2.889 2.889 0 0 1 0 5.778ZM2.889 52a2.889 2.889 0 1 1 0-5.778 2.889 2.889 0 0 1 0 5.778ZM37.556 40.444a2.889 2.889 0 1 1 0-5.777 2.889 2.889 0 0 1 0 5.777ZM26 40.444a2.889 2.889 0 1 1 0-5.777 2.889 2.889 0 0 1 0 5.777ZM14.444 40.444a2.889 2.889 0 1 1 0-5.777 2.889 2.889 0 0 1 0 5.777ZM2.889 40.444a2.889 2.889 0 1 1 0-5.777 2.889 2.889 0 0 1 0 5.777Z" fill="#E5A117"/></svg>