<svg width="177" height="28" viewBox="0 0 177 28" fill="none" xmlns="http://www.w3.org/2000/svg">
<path d="M28.44 12.24C28.584 13.212 28.62 14.184 28.62 15.732V27.144H23.652V17.172C23.652 16.056 23.616 15.012 23.508 14.04C23.256 12.06 22.176 10.98 20.268 10.98C18.036 10.98 16.776 12.888 16.776 17.316V27.144H11.844V17.172C11.844 16.056 11.808 15.012 11.7 14.04C11.448 12.06 10.332 10.98 8.424 10.98C6.192 10.98 4.968 12.888 4.968 17.316V27.144H0V7.992H4.968V10.908L6.372 8.604C7.452 7.848 8.712 7.488 10.44 7.488C13.572 7.488 15.552 9.036 16.308 11.124L18.18 8.604C19.26 7.848 20.556 7.488 22.284 7.488C25.92 7.488 28.008 9.612 28.44 12.24Z" fill="white"/>
<path d="M41.6166 7.488C47.9886 7.488 51.5526 11.736 51.5526 17.568C51.5526 23.364 47.9886 27.648 41.6166 27.648C35.2446 27.648 31.6806 23.364 31.6806 17.568C31.6806 11.736 35.2446 7.488 41.6166 7.488ZM41.6166 24.156C44.6046 24.156 46.4046 21.672 46.4046 17.568C46.4046 13.428 44.6046 10.98 41.6166 10.98C38.6286 10.98 36.8286 13.428 36.8286 17.568C36.8286 21.672 38.6286 24.156 41.6166 24.156Z" fill="white"/>
<path d="M60.7486 11.412V20.268C60.7486 20.916 60.7486 21.456 60.7846 21.96C60.9286 23.832 61.6126 24.264 64.3846 24.048V27.288C63.2686 27.468 62.2246 27.54 61.1086 27.54C57.4006 27.54 56.0686 26.316 55.8526 23.616C55.7806 22.752 55.7806 21.924 55.7806 20.844V11.412H52.9726V8.136H55.7806V3.42H60.7486V8.136H64.7086V11.412H60.7486Z" fill="white"/>
<path d="M72.4846 11.412V20.268C72.4846 20.916 72.4846 21.456 72.5206 21.96C72.6646 23.832 73.3486 24.264 76.1206 24.048V27.288C75.0046 27.468 73.9606 27.54 72.8446 27.54C69.1366 27.54 67.8046 26.316 67.5886 23.616C67.5166 22.752 67.5166 21.924 67.5166 20.844V11.412H64.7086V8.136H67.5166V3.42H72.4846V8.136H76.4446V11.412H72.4846Z" fill="white"/>
<path d="M88.1478 7.488C94.5198 7.488 98.0838 11.736 98.0838 17.568C98.0838 23.364 94.5198 27.648 88.1478 27.648C81.7758 27.648 78.2118 23.364 78.2118 17.568C78.2118 11.736 81.7758 7.488 88.1478 7.488ZM88.1478 24.156C91.1358 24.156 92.9358 21.672 92.9358 17.568C92.9358 13.428 91.1358 10.98 88.1478 10.98C85.1598 10.98 83.3598 13.428 83.3598 17.568C83.3598 21.672 85.1598 24.156 88.1478 24.156Z" fill="white"/>
<path d="M109.62 7.488C114.804 7.488 118.008 10.656 118.368 14.904H113.472C113.004 12.132 111.564 10.98 109.512 10.98C106.992 10.98 105.192 13.032 105.192 17.388C105.192 22.14 106.992 24.156 109.476 24.156C111.42 24.156 112.86 22.932 113.364 20.52H118.332C117.504 25.236 113.976 27.648 109.188 27.648C103.968 27.648 100.044 24.336 100.044 17.712C100.044 11.16 104.364 7.488 109.62 7.488Z" fill="white"/>
<path d="M131.276 7.524C131.852 7.524 132.248 7.56 132.68 7.668V11.664C128.54 11.376 126.488 13.212 126.488 18.36V27.144H121.52V7.992H126.488V11.484L128 8.82C128.936 7.956 130.196 7.524 131.276 7.524Z" fill="white"/>
<path d="M142.179 24.156C144.195 24.156 145.887 22.752 145.887 20.088V18.54C141.927 18.252 139.263 19.152 139.263 21.672C139.263 23.364 140.415 24.156 142.179 24.156ZM146.319 27.144L145.959 24.336L145.023 26.388C143.691 27.288 142.071 27.648 140.271 27.648C136.959 27.648 134.115 25.704 134.115 22.068C134.115 17.856 137.715 15.48 144.663 15.48H145.887V15.084C145.887 14.508 145.887 13.932 145.815 13.284C145.671 11.952 144.807 10.98 142.863 10.98C140.883 10.98 139.803 12.132 139.659 14.22L134.835 14.256C134.979 9.936 138.471 7.488 143.043 7.488C148.407 7.488 150.423 9.828 150.711 13.14C150.783 14.04 150.819 15.048 150.819 16.092V22.284C150.819 23.724 150.891 25.02 151.179 27.144H146.319Z" fill="white"/>
<path d="M160.954 5.544C160.882 6.048 160.882 6.696 160.882 7.2V8.136H164.806V11.412H160.882V27.144H155.914V11.412H153.862V8.136H155.914V7.344C155.914 6.696 155.914 5.796 155.986 5.148C156.274 1.908 158.398 0 162.934 0C163.726 0 164.482 0.107999 165.13 0.251999V3.708C162.79 3.276 161.134 3.924 160.954 5.544Z" fill="white"/>
<path d="M172.514 11.412V20.268C172.514 20.916 172.514 21.456 172.55 21.96C172.694 23.832 173.378 24.264 176.15 24.048V27.288C175.034 27.468 173.99 27.54 172.874 27.54C169.166 27.54 167.834 26.316 167.618 23.616C167.546 22.752 167.546 21.924 167.546 20.844V11.412H164.738V8.136H167.546V3.42H172.514V8.136H176.474V11.412H172.514Z" fill="white"/>
</svg>
